<mxfile host="drawio.tiamarch.xyz" modified="2024-06-03T08:10:24.855Z" agent="Mozilla/5.0 (Windows NT 10.0; Win64; x64) AppleWebKit/537.36 (KHTML, like Gecko) Chrome/125.0.0.0 Safari/537.36" etag="kcdUkT98R8o0iytmsBQ7" version="23.1.2" type="device">
  <diagram name="Page-1" id="KCgSxegGcV2Et4Kk9oVz">
    <mxGraphModel dx="2899" dy="1123" grid="1" gridSize="10" guides="1" tooltips="1" connect="1" arrows="1" fold="1" page="1" pageScale="1" pageWidth="850" pageHeight="1100" math="0" shadow="0">
      <root>
        <mxCell id="0" />
        <mxCell id="1" parent="0" />
        <mxCell id="OH1elVuSI2LvUlGJsYt0-4" style="edgeStyle=orthogonalEdgeStyle;rounded=0;orthogonalLoop=1;jettySize=auto;html=1;" parent="1" source="OH1elVuSI2LvUlGJsYt0-1" target="OH1elVuSI2LvUlGJsYt0-2" edge="1">
          <mxGeometry relative="1" as="geometry" />
        </mxCell>
        <mxCell id="OH1elVuSI2LvUlGJsYt0-5" style="edgeStyle=orthogonalEdgeStyle;rounded=0;orthogonalLoop=1;jettySize=auto;html=1;entryX=0;entryY=0.5;entryDx=0;entryDy=0;dashed=1;" parent="1" source="OH1elVuSI2LvUlGJsYt0-1" target="OH1elVuSI2LvUlGJsYt0-3" edge="1">
          <mxGeometry relative="1" as="geometry" />
        </mxCell>
        <mxCell id="OH1elVuSI2LvUlGJsYt0-13" style="edgeStyle=orthogonalEdgeStyle;rounded=0;orthogonalLoop=1;jettySize=auto;html=1;entryX=0;entryY=0.5;entryDx=0;entryDy=0;" parent="1" source="OH1elVuSI2LvUlGJsYt0-1" target="OH1elVuSI2LvUlGJsYt0-6" edge="1">
          <mxGeometry relative="1" as="geometry" />
        </mxCell>
        <mxCell id="OH1elVuSI2LvUlGJsYt0-15" style="edgeStyle=orthogonalEdgeStyle;rounded=0;orthogonalLoop=1;jettySize=auto;html=1;entryX=0;entryY=0.5;entryDx=0;entryDy=0;dashed=1;" parent="1" source="OH1elVuSI2LvUlGJsYt0-1" target="OH1elVuSI2LvUlGJsYt0-14" edge="1">
          <mxGeometry relative="1" as="geometry" />
        </mxCell>
        <mxCell id="OH1elVuSI2LvUlGJsYt0-1" value="Node Definition" style="rounded=0;whiteSpace=wrap;html=1;" parent="1" vertex="1">
          <mxGeometry x="-30" y="180" width="120" height="60" as="geometry" />
        </mxCell>
        <mxCell id="OH1elVuSI2LvUlGJsYt0-9" style="edgeStyle=orthogonalEdgeStyle;rounded=0;orthogonalLoop=1;jettySize=auto;html=1;entryX=0;entryY=0.5;entryDx=0;entryDy=0;" parent="1" source="OH1elVuSI2LvUlGJsYt0-2" target="OH1elVuSI2LvUlGJsYt0-10" edge="1">
          <mxGeometry relative="1" as="geometry">
            <mxPoint x="710" y="349.9999999999999" as="targetPoint" />
          </mxGeometry>
        </mxCell>
        <mxCell id="OH1elVuSI2LvUlGJsYt0-2" value="Automated UI" style="rounded=0;whiteSpace=wrap;html=1;" parent="1" vertex="1">
          <mxGeometry x="425" y="240" width="120" height="60" as="geometry" />
        </mxCell>
        <mxCell id="OH1elVuSI2LvUlGJsYt0-3" value="Custom UI" style="rounded=0;whiteSpace=wrap;html=1;" parent="1" vertex="1">
          <mxGeometry x="425" y="300" width="120" height="60" as="geometry" />
        </mxCell>
        <mxCell id="OH1elVuSI2LvUlGJsYt0-6" value="Automated Controls" style="rounded=0;whiteSpace=wrap;html=1;" parent="1" vertex="1">
          <mxGeometry x="425" y="60" width="120" height="60" as="geometry" />
        </mxCell>
        <mxCell id="OH1elVuSI2LvUlGJsYt0-10" value="Specifics" style="rounded=0;whiteSpace=wrap;html=1;" parent="1" vertex="1">
          <mxGeometry x="700" y="240" width="120" height="60" as="geometry" />
        </mxCell>
        <mxCell id="OH1elVuSI2LvUlGJsYt0-14" value="Custom Controls" style="rounded=0;whiteSpace=wrap;html=1;" parent="1" vertex="1">
          <mxGeometry x="425" y="120" width="120" height="60" as="geometry" />
        </mxCell>
        <mxCell id="OH1elVuSI2LvUlGJsYt0-17" value="&lt;h1&gt;UI Rendering&lt;/h1&gt;" style="text;html=1;strokeColor=none;fillColor=none;spacing=5;spacingTop=-20;whiteSpace=wrap;overflow=hidden;rounded=0;" parent="1" vertex="1">
          <mxGeometry x="-30" y="20" width="190" height="120" as="geometry" />
        </mxCell>
        <mxCell id="OH1elVuSI2LvUlGJsYt0-18" value="By default the UI for the node shown in the editor graph is automatically derived from the ports on the node, however it can be completely replaced by a custom UI if needed" style="text;html=1;strokeColor=none;fillColor=none;align=center;verticalAlign=middle;whiteSpace=wrap;rounded=0;" parent="1" vertex="1">
          <mxGeometry x="260" y="370" width="215" height="100" as="geometry" />
        </mxCell>
        <mxCell id="OH1elVuSI2LvUlGJsYt0-19" value="It is likely however that default functionality is still needed and only additional specific UI components need to be added. For this there are specifics. A lookup based on the node type checks if there are any custom UI components that need to be generated and then renders them in additional to the default UI" style="text;html=1;strokeColor=none;fillColor=none;align=center;verticalAlign=middle;whiteSpace=wrap;rounded=0;" parent="1" vertex="1">
          <mxGeometry x="565" y="310" width="255" height="130" as="geometry" />
        </mxCell>
        <mxCell id="OH1elVuSI2LvUlGJsYt0-20" value="In the input/output panels, most controls are automatically provided based on the port definitions, but these too can be overridden by writing custom controls. Controls use a an ordered check, so if a specific control has higher priority than another, it needs to be place first in the control queue." style="text;html=1;strokeColor=none;fillColor=none;align=left;verticalAlign=middle;whiteSpace=wrap;rounded=0;" parent="1" vertex="1">
          <mxGeometry x="560" y="60" width="255" height="130" as="geometry" />
        </mxCell>
      </root>
    </mxGraphModel>
  </diagram>
</mxfile>
